<?xml version="1.0" standalone="no"?>
<!DOCTYPE svg PUBLIC "-//W3C//DTD SVG 20010904//EN"
 "http://www.w3.org/TR/2001/REC-SVG-20010904/DTD/svg10.dtd">
<svg version="1.0" xmlns="http://www.w3.org/2000/svg"
 width="1616.000000pt" height="535.000000pt" viewBox="0 0 1616.000000 535.000000"
 preserveAspectRatio="xMidYMid meet">

<g transform="translate(0.000000,535.000000) scale(0.100000,-0.100000)"
fill="#000000" stroke="none">
<path d="M2550 3755 c-80 -17 -160 -44 -225 -77 l-49 -25 59 -18 c173 -50 405
-69 566 -46 90 13 234 47 259 61 19 11 -84 59 -192 91 -94 27 -321 35 -418 14z"/>
<path d="M1895 3696 c-189 -60 -315 -229 -315 -421 0 -130 39 -221 139 -319
67 -66 63 -69 76 40 5 46 2 56 -20 82 -94 112 -91 285 7 396 74 85 177 125
274 107 45 -9 48 -7 109 39 l64 48 -78 21 c-87 24 -194 27 -256 7z"/>
<path d="M3325 3695 c-103 -28 -102 -25 -33 -76 60 -45 63 -45 110 -37 61 11
156 -11 212 -50 147 -102 179 -332 64 -458 -17 -20 -19 -31 -12 -104 l7 -82
56 56 c110 109 159 229 147 358 -26 280 -286 465 -551 393z"/>
<path d="M5090 3480 l0 -100 275 0 275 0 0 -720 0 -721 113 3 112 3 3 718 2
717 270 0 270 0 0 100 0 100 -660 0 -660 0 0 -100z"/>
<path d="M11810 2760 l0 -821 98 3 97 3 3 68 3 68 45 -46 c26 -27 73 -60 112
-78 65 -31 72 -32 197 -32 128 0 132 1 198 33 92 45 157 113 206 214 58 118
75 217 69 392 -4 123 -9 152 -35 226 -34 99 -87 185 -146 235 -166 143 -434
139 -593 -7 l-44 -41 0 302 0 301 -105 0 -105 0 0 -820z m640 152 c103 -50
157 -162 167 -347 17 -301 -112 -484 -325 -462 -159 17 -248 126 -272 335 -15
135 9 294 57 372 79 128 232 170 373 102z"/>
<path d="M13090 2760 l0 -820 110 0 110 0 0 820 0 820 -110 0 -110 0 0 -820z"/>
<path d="M2079 3500 c-106 -108 -187 -250 -228 -399 l-20 -72 133 -132 c230
-229 350 -443 426 -761 16 -65 32 -122 37 -127 5 -5 45 -18 88 -30 116 -30
307 -29 429 3 l90 23 37 150 c80 319 200 528 438 761 l114 112 -17 69 c-36
144 -131 307 -238 409 l-53 52 -108 -34 c-337 -104 -614 -104 -961 1 l-110 33
-57 -58z"/>
<path d="M9768 3273 l-3 -168 -108 -3 -108 -3 3 -92 3 -92 108 -3 107 -3 0
-367 c1 -282 4 -376 14 -405 46 -129 144 -182 354 -194 l112 -6 0 95 0 95 -92
7 c-107 7 -147 26 -165 76 -8 24 -12 137 -12 368 l-1 332 135 0 135 0 0 95 0
95 -130 0 -130 0 0 170 0 170 -110 0 -110 0 -2 -167z"/>
<path d="M6925 3116 c-110 -27 -193 -82 -257 -170 l-28 -39 0 96 0 97 -105 0
-105 0 2 -577 3 -578 107 -3 106 -3 4 358 c5 409 8 427 85 513 57 64 126 91
251 98 l92 5 0 108 0 109 -52 -1 c-29 0 -75 -6 -103 -13z"/>
<path d="M7545 3116 c-167 -41 -286 -168 -341 -366 -14 -50 -18 -102 -19 -230
0 -145 3 -174 23 -240 76 -243 223 -360 452 -360 145 0 236 38 322 134 l38 41
0 -77 0 -78 95 0 95 0 0 580 0 580 -100 0 -100 0 0 -70 0 -70 -40 44 c-96 104
-270 150 -425 112z m282 -198 c56 -26 117 -97 142 -164 64 -171 42 -427 -48
-550 -84 -117 -292 -136 -401 -38 -83 75 -126 219 -117 394 7 122 30 207 76
273 72 105 226 143 348 85z"/>
<path d="M8880 3123 c-64 -11 -155 -48 -202 -84 -94 -71 -157 -171 -195 -309
-24 -91 -24 -328 1 -420 40 -146 132 -277 233 -333 149 -81 392 -78 536 7 85
49 166 161 195 267 l10 37 -92 17 c-50 9 -97 18 -104 21 -7 2 -14 -2 -16 -9
-29 -99 -67 -152 -140 -190 -59 -31 -183 -30 -249 2 -96 47 -148 140 -169 306
-9 73 -9 114 1 187 28 214 127 321 295 321 55 0 84 -5 119 -22 57 -28 114 -91
129 -146 6 -22 14 -43 18 -48 5 -6 69 4 187 28 20 5 21 8 11 42 -31 113 -123
230 -220 279 -86 44 -242 65 -348 47z"/>
<path d="M10812 3119 c-162 -32 -296 -171 -348 -364 -25 -93 -30 -313 -10
-416 31 -155 105 -280 206 -347 82 -55 164 -75 286 -70 84 3 109 8 164 34 36
17 86 52 112 78 l47 47 3 -68 3 -68 98 -3 97 -3 0 581 0 580 -100 0 -100 0 0
-70 0 -70 -40 44 c-93 101 -258 147 -418 115z m264 -195 c72 -30 139 -112 164
-199 20 -74 29 -203 19 -291 -17 -156 -71 -254 -163 -299 -71 -35 -147 -42
-220 -21 -150 44 -226 206 -213 456 11 216 91 340 239 370 51 10 128 3 174
-16z"/>
<path d="M13970 3123 c-43 -7 -143 -45 -182 -69 -100 -64 -184 -194 -215 -336
-21 -99 -21 -301 1 -393 62 -259 246 -405 511 -405 160 0 267 42 370 145 53
53 124 160 113 170 -2 3 -45 15 -96 29 l-92 25 -21 -40 c-51 -101 -146 -153
-277 -152 -128 1 -228 67 -279 183 -16 38 -43 170 -36 183 2 4 187 7 410 7
l406 0 -6 108 c-14 241 -101 408 -257 491 -93 50 -238 72 -350 54z m238 -199
c82 -40 139 -131 158 -256 l7 -38 -303 0 -302 0 7 43 c39 232 236 347 433 251z"/>
<path d="M1824 2780 c14 -177 89 -359 207 -500 51 -61 152 -150 207 -183 l31
-17 -25 92 c-65 244 -188 453 -364 623 l-62 60 6 -75z"/>
<path d="M3587 2810 c-124 -109 -270 -331 -336 -510 -20 -55 -61 -197 -61
-213 0 -16 96 56 168 127 154 149 246 333 272 542 6 48 9 88 7 90 -2 2 -25
-14 -50 -36z"/>
<path d="M2284 2011 c3 -9 10 -38 17 -66 42 -177 178 -305 359 -337 77 -13
180 2 258 37 69 32 152 112 190 184 28 51 62 155 62 187 0 8 -25 1 -69 -18
-64 -29 -70 -34 -90 -83 -92 -221 -413 -249 -542 -47 -17 26 -33 59 -35 73 -5
21 -19 31 -80 56 -61 25 -74 28 -70 14z"/>
</g>
</svg>
